# MagicaVoxel @ Ephtracy

# group
o 

# material
mtllib amostra de casa.mtl
usemtl palette

# normals
vn -1 0 0
vn 1 0 0
vn 0 0 1
vn 0 0 -1
vn 0 -1 0
vn 0 1 0

# texcoords
vt 0.138672 0.5
vt 0.205078 0.5

# verts
v 0.6 0.4 -0.6
v 0.6 0.4 -1.4
v 0.6 1.1 -0.6
v 0.6 1.1 -1.4
v 0.6 1.2 -0.6
v 0.6 1.2 -1.4
v 0.7 1.2 -0.7
v 0.7 1.2 -1.3
v 0.7 1.3 -0.7
v 0.7 1.3 -1.3
v 0.8 1.3 -0.8
v 0.8 1.3 -1.2
v 0.8 1.5 -0.8
v 0.8 1.5 -1.2
v 0.9 0.8 -0.6
v 0.9 0.8 -0.7
v 0.9 1 -0.6
v 0.9 1 -0.7
v 0.9 1.5 -0.9
v 0.9 1.5 -1.1
v 0.9 1.6 -0.9
v 0.9 1.6 -1.1
v 1.1 0.4 -0.6
v 1.1 0.4 -0.7
v 1.1 0.7 -0.6
v 1.1 0.7 -0.7
v 1.3 0.8 -0.6
v 1.3 0.8 -0.7
v 1.3 1 -0.6
v 1.3 1 -0.7
v 0.7 0.8 -0.6
v 0.7 0.8 -0.7
v 0.7 1 -0.6
v 0.7 1 -0.7
v 0.9 0.4 -0.6
v 0.9 0.4 -0.7
v 0.9 0.7 -0.6
v 0.9 0.7 -0.7
v 1.1 0.8 -0.6
v 1.1 0.8 -0.7
v 1.1 1 -0.6
v 1.1 1 -0.7
v 1.1 1.5 -0.9
v 1.1 1.5 -1.1
v 1.1 1.6 -0.9
v 1.1 1.6 -1.1
v 1.2 1.3 -0.8
v 1.2 1.3 -1.2
v 1.2 1.5 -0.8
v 1.2 1.5 -1.2
v 1.3 1.2 -0.7
v 1.3 1.2 -1.3
v 1.3 1.3 -0.7
v 1.3 1.3 -1.3
v 1.4 0.4 -0.6
v 1.4 0.4 -1.4
v 1.4 1.1 -0.6
v 1.4 1.1 -1.4
v 1.4 1.2 -0.6
v 1.4 1.2 -1.4
v 0.6 0.4 -0.6
v 0.6 1.1 -0.6
v 0.6 1.2 -0.6
v 0.7 0.8 -0.6
v 0.7 1 -0.6
v 0.9 0.4 -0.6
v 0.9 0.7 -0.6
v 0.9 0.8 -0.6
v 0.9 1 -0.6
v 1.1 0.4 -0.6
v 1.1 0.7 -0.6
v 1.1 0.8 -0.6
v 1.1 1 -0.6
v 1.3 0.8 -0.6
v 1.3 1 -0.6
v 1.4 0.4 -0.6
v 1.4 1.1 -0.6
v 1.4 1.2 -0.6
v 0.7 0.8 -0.7
v 0.7 1 -0.7
v 0.7 1.2 -0.7
v 0.7 1.3 -0.7
v 0.9 0.4 -0.7
v 0.9 0.7 -0.7
v 0.9 0.8 -0.7
v 0.9 1 -0.7
v 1.1 0.4 -0.7
v 1.1 0.7 -0.7
v 1.1 0.8 -0.7
v 1.1 1 -0.7
v 1.3 0.8 -0.7
v 1.3 1 -0.7
v 1.3 1.2 -0.7
v 1.3 1.3 -0.7
v 0.8 1.3 -0.8
v 0.8 1.5 -0.8
v 1.2 1.3 -0.8
v 1.2 1.5 -0.8
v 0.9 1.5 -0.9
v 0.9 1.6 -0.9
v 1.1 1.5 -0.9
v 1.1 1.6 -0.9
v 0.9 1.5 -1.1
v 0.9 1.6 -1.1
v 1.1 1.5 -1.1
v 1.1 1.6 -1.1
v 0.8 1.3 -1.2
v 0.8 1.5 -1.2
v 1.2 1.3 -1.2
v 1.2 1.5 -1.2
v 0.7 1.2 -1.3
v 0.7 1.3 -1.3
v 1.3 1.2 -1.3
v 1.3 1.3 -1.3
v 0.6 0.4 -1.4
v 0.6 1.1 -1.4
v 0.6 1.2 -1.4
v 1.4 0.4 -1.4
v 1.4 1.1 -1.4
v 1.4 1.2 -1.4
v 0.6 0.4 -0.6
v 0.9 0.4 -0.6
v 1.1 0.4 -0.6
v 1.4 0.4 -0.6
v 0.9 0.4 -0.7
v 1.1 0.4 -0.7
v 0.6 0.4 -1.4
v 1.4 0.4 -1.4
v 0.9 0.7 -0.6
v 1.1 0.7 -0.6
v 0.9 0.7 -0.7
v 1.1 0.7 -0.7
v 0.7 1 -0.6
v 0.9 1 -0.6
v 1.1 1 -0.6
v 1.3 1 -0.6
v 0.7 1 -0.7
v 0.9 1 -0.7
v 1.1 1 -0.7
v 1.3 1 -0.7
v 0.7 0.8 -0.6
v 0.9 0.8 -0.6
v 1.1 0.8 -0.6
v 1.3 0.8 -0.6
v 0.7 0.8 -0.7
v 0.9 0.8 -0.7
v 1.1 0.8 -0.7
v 1.3 0.8 -0.7
v 0.6 1.2 -0.6
v 1.4 1.2 -0.6
v 0.7 1.2 -0.7
v 1.3 1.2 -0.7
v 0.7 1.2 -1.3
v 1.3 1.2 -1.3
v 0.6 1.2 -1.4
v 1.4 1.2 -1.4
v 0.7 1.3 -0.7
v 1.3 1.3 -0.7
v 0.8 1.3 -0.8
v 1.2 1.3 -0.8
v 0.8 1.3 -1.2
v 1.2 1.3 -1.2
v 0.7 1.3 -1.3
v 1.3 1.3 -1.3
v 0.8 1.5 -0.8
v 1.2 1.5 -0.8
v 0.9 1.5 -0.9
v 1.1 1.5 -0.9
v 0.9 1.5 -1.1
v 1.1 1.5 -1.1
v 0.8 1.5 -1.2
v 1.2 1.5 -1.2
v 0.9 1.6 -0.9
v 1.1 1.6 -0.9
v 0.9 1.6 -1.1
v 1.1 1.6 -1.1

# faces
f 3/2/1 2/2/1 1/2/1
f 4/2/1 2/2/1 3/2/1
f 5/1/1 4/1/1 3/1/1
f 6/1/1 4/1/1 5/1/1
f 9/1/1 8/1/1 7/1/1
f 10/1/1 8/1/1 9/1/1
f 13/1/1 12/1/1 11/1/1
f 14/1/1 12/1/1 13/1/1
f 17/2/1 16/2/1 15/2/1
f 18/2/1 16/2/1 17/2/1
f 21/1/1 20/1/1 19/1/1
f 22/1/1 20/1/1 21/1/1
f 25/2/1 24/2/1 23/2/1
f 26/2/1 24/2/1 25/2/1
f 29/2/1 28/2/1 27/2/1
f 30/2/1 28/2/1 29/2/1
f 31/2/2 32/2/2 33/2/2
f 33/2/2 32/2/2 34/2/2
f 35/2/2 36/2/2 37/2/2
f 37/2/2 36/2/2 38/2/2
f 39/2/2 40/2/2 41/2/2
f 41/2/2 40/2/2 42/2/2
f 43/1/2 44/1/2 45/1/2
f 45/1/2 44/1/2 46/1/2
f 47/1/2 48/1/2 49/1/2
f 49/1/2 48/1/2 50/1/2
f 51/1/2 52/1/2 53/1/2
f 53/1/2 52/1/2 54/1/2
f 55/2/2 56/2/2 57/2/2
f 57/2/2 56/2/2 58/2/2
f 57/1/2 58/1/2 59/1/2
f 59/1/2 58/1/2 60/1/2
f 64/2/3 62/2/3 61/2/3
f 65/2/3 62/2/3 64/2/3
f 66/2/3 64/2/3 61/2/3
f 67/2/3 64/2/3 66/2/3
f 68/2/3 64/2/3 67/2/3
f 69/2/3 62/2/3 65/2/3
f 71/2/3 68/2/3 67/2/3
f 71/2/3 69/2/3 68/2/3
f 72/2/3 69/2/3 71/2/3
f 73/2/3 62/2/3 69/2/3
f 73/2/3 69/2/3 72/2/3
f 74/2/3 72/2/3 71/2/3
f 74/2/3 71/2/3 70/2/3
f 75/2/3 62/2/3 73/2/3
f 76/2/3 74/2/3 70/2/3
f 76/2/3 75/2/3 74/2/3
f 77/1/3 63/1/3 62/1/3
f 77/2/3 75/2/3 76/2/3
f 77/2/3 62/2/3 75/2/3
f 78/1/3 63/1/3 77/1/3
f 85/2/3 80/2/3 79/2/3
f 86/2/3 80/2/3 85/2/3
f 87/2/3 84/2/3 83/2/3
f 88/2/3 84/2/3 87/2/3
f 91/2/3 90/2/3 89/2/3
f 92/2/3 90/2/3 91/2/3
f 93/1/3 82/1/3 81/1/3
f 94/1/3 82/1/3 93/1/3
f 97/1/3 96/1/3 95/1/3
f 98/1/3 96/1/3 97/1/3
f 101/1/3 100/1/3 99/1/3
f 102/1/3 100/1/3 101/1/3
f 103/1/4 104/1/4 105/1/4
f 105/1/4 104/1/4 106/1/4
f 107/1/4 108/1/4 109/1/4
f 109/1/4 108/1/4 110/1/4
f 111/1/4 112/1/4 113/1/4
f 113/1/4 112/1/4 114/1/4
f 115/2/4 116/2/4 118/2/4
f 116/1/4 117/1/4 119/1/4
f 118/2/4 116/2/4 119/2/4
f 119/1/4 117/1/4 120/1/4
f 125/2/5 122/2/5 121/2/5
f 126/2/5 124/2/5 123/2/5
f 127/2/5 125/2/5 121/2/5
f 127/2/5 126/2/5 125/2/5
f 128/2/5 124/2/5 126/2/5
f 128/2/5 126/2/5 127/2/5
f 131/2/5 130/2/5 129/2/5
f 132/2/5 130/2/5 131/2/5
f 137/2/5 134/2/5 133/2/5
f 138/2/5 134/2/5 137/2/5
f 139/2/5 136/2/5 135/2/5
f 140/2/5 136/2/5 139/2/5
f 141/2/6 142/2/6 145/2/6
f 145/2/6 142/2/6 146/2/6
f 143/2/6 144/2/6 147/2/6
f 147/2/6 144/2/6 148/2/6
f 149/1/6 150/1/6 151/1/6
f 151/1/6 150/1/6 152/1/6
f 149/1/6 151/1/6 153/1/6
f 152/1/6 150/1/6 154/1/6
f 149/1/6 153/1/6 155/1/6
f 153/1/6 154/1/6 155/1/6
f 154/1/6 150/1/6 156/1/6
f 155/1/6 154/1/6 156/1/6
f 157/1/6 158/1/6 159/1/6
f 159/1/6 158/1/6 160/1/6
f 157/1/6 159/1/6 161/1/6
f 160/1/6 158/1/6 162/1/6
f 157/1/6 161/1/6 163/1/6
f 161/1/6 162/1/6 163/1/6
f 162/1/6 158/1/6 164/1/6
f 163/1/6 162/1/6 164/1/6
f 165/1/6 166/1/6 167/1/6
f 167/1/6 166/1/6 168/1/6
f 165/1/6 167/1/6 169/1/6
f 168/1/6 166/1/6 170/1/6
f 165/1/6 169/1/6 171/1/6
f 169/1/6 170/1/6 171/1/6
f 170/1/6 166/1/6 172/1/6
f 171/1/6 170/1/6 172/1/6
f 173/1/6 174/1/6 175/1/6
f 175/1/6 174/1/6 176/1/6
